<mxfile host="app.diagrams.net" agent="Mozilla/5.0 (Windows NT 10.0; Win64; x64) AppleWebKit/537.36 (KHTML, like Gecko) Chrome/138.0.0.0 Safari/537.36" version="28.0.6">
  <diagram name="Page-1" id="gr4aRQA1Ry37LwUo_Hiq">
    <mxGraphModel dx="1042" dy="535" grid="1" gridSize="10" guides="1" tooltips="1" connect="1" arrows="1" fold="1" page="1" pageScale="1" pageWidth="850" pageHeight="1100" math="0" shadow="0">
      <root>
        <mxCell id="0" />
        <mxCell id="1" parent="0" />
        <mxCell id="4G0LovrCN2Yt_GQHjAdB-3" style="edgeStyle=orthogonalEdgeStyle;rounded=0;orthogonalLoop=1;jettySize=auto;html=1;entryX=0.5;entryY=0;entryDx=0;entryDy=0;" parent="1" source="4G0LovrCN2Yt_GQHjAdB-4" target="4G0LovrCN2Yt_GQHjAdB-14" edge="1">
          <mxGeometry relative="1" as="geometry" />
        </mxCell>
        <mxCell id="4G0LovrCN2Yt_GQHjAdB-4" value="Image Input" style="rounded=1;whiteSpace=wrap;html=1;" parent="1" vertex="1">
          <mxGeometry x="790" y="110" width="120" height="40" as="geometry" />
        </mxCell>
        <mxCell id="4G0LovrCN2Yt_GQHjAdB-13" style="edgeStyle=orthogonalEdgeStyle;rounded=0;orthogonalLoop=1;jettySize=auto;html=1;exitX=0.5;exitY=1;exitDx=0;exitDy=0;entryX=0.5;entryY=0;entryDx=0;entryDy=0;" parent="1" source="4G0LovrCN2Yt_GQHjAdB-14" target="4G0LovrCN2Yt_GQHjAdB-16" edge="1">
          <mxGeometry relative="1" as="geometry" />
        </mxCell>
        <mxCell id="4G0LovrCN2Yt_GQHjAdB-14" value="Image Preprocessing" style="rounded=1;whiteSpace=wrap;html=1;" parent="1" vertex="1">
          <mxGeometry x="790" y="190" width="120" height="40" as="geometry" />
        </mxCell>
        <mxCell id="4G0LovrCN2Yt_GQHjAdB-15" style="edgeStyle=orthogonalEdgeStyle;rounded=0;orthogonalLoop=1;jettySize=auto;html=1;exitX=0.5;exitY=1;exitDx=0;exitDy=0;entryX=0.5;entryY=0;entryDx=0;entryDy=0;" parent="1" source="4G0LovrCN2Yt_GQHjAdB-16" target="4G0LovrCN2Yt_GQHjAdB-18" edge="1">
          <mxGeometry relative="1" as="geometry" />
        </mxCell>
        <mxCell id="4G0LovrCN2Yt_GQHjAdB-16" value="Image Segmentation" style="rounded=1;whiteSpace=wrap;html=1;" parent="1" vertex="1">
          <mxGeometry x="790" y="270" width="120" height="40" as="geometry" />
        </mxCell>
        <mxCell id="4G0LovrCN2Yt_GQHjAdB-17" style="edgeStyle=orthogonalEdgeStyle;rounded=0;orthogonalLoop=1;jettySize=auto;html=1;exitX=0.5;exitY=1;exitDx=0;exitDy=0;entryX=0.5;entryY=0;entryDx=0;entryDy=0;" parent="1" source="4G0LovrCN2Yt_GQHjAdB-18" target="4G0LovrCN2Yt_GQHjAdB-20" edge="1">
          <mxGeometry relative="1" as="geometry" />
        </mxCell>
        <mxCell id="4G0LovrCN2Yt_GQHjAdB-18" value="Feature Extraction" style="rounded=1;whiteSpace=wrap;html=1;" parent="1" vertex="1">
          <mxGeometry x="790" y="350" width="120" height="40" as="geometry" />
        </mxCell>
        <mxCell id="4G0LovrCN2Yt_GQHjAdB-19" style="edgeStyle=orthogonalEdgeStyle;rounded=0;orthogonalLoop=1;jettySize=auto;html=1;exitX=0.5;exitY=1;exitDx=0;exitDy=0;entryX=0.5;entryY=0;entryDx=0;entryDy=0;" parent="1" source="4G0LovrCN2Yt_GQHjAdB-20" target="4G0LovrCN2Yt_GQHjAdB-30" edge="1">
          <mxGeometry relative="1" as="geometry" />
        </mxCell>
        <mxCell id="4G0LovrCN2Yt_GQHjAdB-20" value="ML Classification" style="rounded=1;whiteSpace=wrap;html=1;" parent="1" vertex="1">
          <mxGeometry x="790" y="430" width="120" height="40" as="geometry" />
        </mxCell>
        <mxCell id="4G0LovrCN2Yt_GQHjAdB-26" style="edgeStyle=orthogonalEdgeStyle;rounded=0;orthogonalLoop=1;jettySize=auto;html=1;exitX=0;exitY=0.5;exitDx=0;exitDy=0;entryX=0.5;entryY=0;entryDx=0;entryDy=0;" parent="1" source="4G0LovrCN2Yt_GQHjAdB-30" target="4G0LovrCN2Yt_GQHjAdB-39" edge="1">
          <mxGeometry relative="1" as="geometry">
            <Array as="points">
              <mxPoint x="700" y="550" />
              <mxPoint x="700" y="590" />
              <mxPoint x="540" y="590" />
            </Array>
          </mxGeometry>
        </mxCell>
        <mxCell id="4G0LovrCN2Yt_GQHjAdB-27" value="Yes" style="edgeLabel;html=1;align=center;verticalAlign=middle;resizable=0;points=[];" parent="4G0LovrCN2Yt_GQHjAdB-26" vertex="1" connectable="0">
          <mxGeometry x="-0.099" relative="1" as="geometry">
            <mxPoint as="offset" />
          </mxGeometry>
        </mxCell>
        <mxCell id="4G0LovrCN2Yt_GQHjAdB-28" style="edgeStyle=orthogonalEdgeStyle;rounded=0;orthogonalLoop=1;jettySize=auto;html=1;exitX=0.5;exitY=1;exitDx=0;exitDy=0;entryX=0.5;entryY=0;entryDx=0;entryDy=0;" parent="1" source="4G0LovrCN2Yt_GQHjAdB-44" target="4G0LovrCN2Yt_GQHjAdB-32" edge="1">
          <mxGeometry relative="1" as="geometry" />
        </mxCell>
        <mxCell id="4G0LovrCN2Yt_GQHjAdB-29" value="Yes" style="edgeLabel;html=1;align=center;verticalAlign=middle;resizable=0;points=[];" parent="4G0LovrCN2Yt_GQHjAdB-28" vertex="1" connectable="0">
          <mxGeometry x="-0.2778" y="-1" relative="1" as="geometry">
            <mxPoint as="offset" />
          </mxGeometry>
        </mxCell>
        <mxCell id="4G0LovrCN2Yt_GQHjAdB-30" value="If confidence vote &amp;gt;= 70%" style="rhombus;whiteSpace=wrap;html=1;" parent="1" vertex="1">
          <mxGeometry x="770" y="510" width="160" height="80" as="geometry" />
        </mxCell>
        <mxCell id="4G0LovrCN2Yt_GQHjAdB-31" style="edgeStyle=orthogonalEdgeStyle;rounded=0;orthogonalLoop=1;jettySize=auto;html=1;exitX=0.5;exitY=1;exitDx=0;exitDy=0;entryX=0.5;entryY=0;entryDx=0;entryDy=0;" parent="1" source="4G0LovrCN2Yt_GQHjAdB-32" target="4G0LovrCN2Yt_GQHjAdB-37" edge="1">
          <mxGeometry relative="1" as="geometry" />
        </mxCell>
        <mxCell id="4G0LovrCN2Yt_GQHjAdB-32" value="Ask questions" style="rounded=1;whiteSpace=wrap;html=1;" parent="1" vertex="1">
          <mxGeometry x="790" y="740" width="120" height="40" as="geometry" />
        </mxCell>
        <mxCell id="4G0LovrCN2Yt_GQHjAdB-33" style="edgeStyle=orthogonalEdgeStyle;rounded=0;orthogonalLoop=1;jettySize=auto;html=1;entryX=1;entryY=0.5;entryDx=0;entryDy=0;" parent="1" source="4G0LovrCN2Yt_GQHjAdB-37" target="4G0LovrCN2Yt_GQHjAdB-39" edge="1">
          <mxGeometry relative="1" as="geometry" />
        </mxCell>
        <mxCell id="4G0LovrCN2Yt_GQHjAdB-34" value="Yes" style="edgeLabel;html=1;align=center;verticalAlign=middle;resizable=0;points=[];" parent="4G0LovrCN2Yt_GQHjAdB-33" vertex="1" connectable="0">
          <mxGeometry x="-0.0226" relative="1" as="geometry">
            <mxPoint as="offset" />
          </mxGeometry>
        </mxCell>
        <mxCell id="4G0LovrCN2Yt_GQHjAdB-35" style="edgeStyle=orthogonalEdgeStyle;rounded=0;orthogonalLoop=1;jettySize=auto;html=1;exitX=0.5;exitY=1;exitDx=0;exitDy=0;entryX=0.5;entryY=0;entryDx=0;entryDy=0;" parent="1" source="4G0LovrCN2Yt_GQHjAdB-37" target="4G0LovrCN2Yt_GQHjAdB-38" edge="1">
          <mxGeometry relative="1" as="geometry" />
        </mxCell>
        <mxCell id="4G0LovrCN2Yt_GQHjAdB-36" value="No" style="edgeLabel;html=1;align=center;verticalAlign=middle;resizable=0;points=[];" parent="4G0LovrCN2Yt_GQHjAdB-35" vertex="1" connectable="0">
          <mxGeometry x="0.03" y="-1" relative="1" as="geometry">
            <mxPoint as="offset" />
          </mxGeometry>
        </mxCell>
        <mxCell id="4G0LovrCN2Yt_GQHjAdB-37" value="If&amp;nbsp; answers match with the predefined answer set" style="rhombus;whiteSpace=wrap;html=1;" parent="1" vertex="1">
          <mxGeometry x="750" y="810" width="200" height="100" as="geometry" />
        </mxCell>
        <mxCell id="4G0LovrCN2Yt_GQHjAdB-38" value="Unidentified Disease" style="rounded=1;whiteSpace=wrap;html=1;" parent="1" vertex="1">
          <mxGeometry x="790" y="940" width="120" height="40" as="geometry" />
        </mxCell>
        <mxCell id="4G0LovrCN2Yt_GQHjAdB-39" value="&amp;nbsp;Identify the Disease" style="rounded=1;whiteSpace=wrap;html=1;" parent="1" vertex="1">
          <mxGeometry x="480" y="740" width="120" height="40" as="geometry" />
        </mxCell>
        <mxCell id="4G0LovrCN2Yt_GQHjAdB-40" value="" style="edgeStyle=orthogonalEdgeStyle;rounded=0;orthogonalLoop=1;jettySize=auto;html=1;exitX=0.5;exitY=1;exitDx=0;exitDy=0;entryX=0.5;entryY=0;entryDx=0;entryDy=0;" parent="1" source="4G0LovrCN2Yt_GQHjAdB-30" target="4G0LovrCN2Yt_GQHjAdB-44" edge="1">
          <mxGeometry relative="1" as="geometry">
            <mxPoint x="850" y="590" as="sourcePoint" />
            <mxPoint x="850" y="740" as="targetPoint" />
          </mxGeometry>
        </mxCell>
        <mxCell id="4G0LovrCN2Yt_GQHjAdB-41" value="No" style="edgeLabel;html=1;align=center;verticalAlign=middle;resizable=0;points=[];" parent="4G0LovrCN2Yt_GQHjAdB-40" vertex="1" connectable="0">
          <mxGeometry x="-0.17" y="3" relative="1" as="geometry">
            <mxPoint as="offset" />
          </mxGeometry>
        </mxCell>
        <mxCell id="4G0LovrCN2Yt_GQHjAdB-42" style="edgeStyle=orthogonalEdgeStyle;rounded=0;orthogonalLoop=1;jettySize=auto;html=1;entryX=1;entryY=0.5;entryDx=0;entryDy=0;exitX=1;exitY=0.5;exitDx=0;exitDy=0;" parent="1" source="4G0LovrCN2Yt_GQHjAdB-44" target="4G0LovrCN2Yt_GQHjAdB-38" edge="1">
          <mxGeometry relative="1" as="geometry" />
        </mxCell>
        <mxCell id="4G0LovrCN2Yt_GQHjAdB-43" value="No" style="edgeLabel;html=1;align=center;verticalAlign=middle;resizable=0;points=[];" parent="4G0LovrCN2Yt_GQHjAdB-42" vertex="1" connectable="0">
          <mxGeometry x="-0.0567" y="-2" relative="1" as="geometry">
            <mxPoint as="offset" />
          </mxGeometry>
        </mxCell>
        <mxCell id="4G0LovrCN2Yt_GQHjAdB-44" value="If confidence vote &amp;lt;= 70%&lt;div&gt;AND confidence vote &amp;gt;= 40%&lt;/div&gt;" style="rhombus;whiteSpace=wrap;html=1;" parent="1" vertex="1">
          <mxGeometry x="710" y="630" width="280" height="80" as="geometry" />
        </mxCell>
        <mxCell id="4G0LovrCN2Yt_GQHjAdB-52" value="" style="html=1;shadow=0;dashed=0;align=center;verticalAlign=middle;shape=mxgraph.arrows2.arrow;dy=0.6;dx=40;notch=0;" parent="1" vertex="1">
          <mxGeometry x="910" y="202.5" width="80" height="15" as="geometry" />
        </mxCell>
        <mxCell id="4G0LovrCN2Yt_GQHjAdB-53" value="" style="html=1;shadow=0;dashed=0;align=center;verticalAlign=middle;shape=mxgraph.arrows2.arrow;dy=0.6;dx=40;notch=0;direction=west;" parent="1" vertex="1">
          <mxGeometry x="710" y="442.5" width="80" height="15" as="geometry" />
        </mxCell>
        <mxCell id="4G0LovrCN2Yt_GQHjAdB-54" value="" style="html=1;shadow=0;dashed=0;align=center;verticalAlign=middle;shape=mxgraph.arrows2.arrow;dy=0.6;dx=40;notch=0;direction=west;" parent="1" vertex="1">
          <mxGeometry x="710" y="282.5" width="80" height="15" as="geometry" />
        </mxCell>
        <mxCell id="4G0LovrCN2Yt_GQHjAdB-55" value="" style="html=1;shadow=0;dashed=0;align=center;verticalAlign=middle;shape=mxgraph.arrows2.arrow;dy=0.6;dx=40;notch=0;" parent="1" vertex="1">
          <mxGeometry x="910" y="362.5" width="80" height="15" as="geometry" />
        </mxCell>
        <mxCell id="4G0LovrCN2Yt_GQHjAdB-56" value="&lt;ul&gt;&lt;li&gt;Resizing&lt;/li&gt;&lt;li&gt;Denoising&lt;/li&gt;&lt;li&gt;Contrast Enhancement&lt;/li&gt;&lt;li&gt;Sharpening&lt;/li&gt;&lt;li&gt;Gamma Correlation&lt;/li&gt;&lt;/ul&gt;" style="rounded=0;whiteSpace=wrap;html=1;align=left;" parent="1" vertex="1">
          <mxGeometry x="990" y="170" width="180" height="80" as="geometry" />
        </mxCell>
        <mxCell id="4G0LovrCN2Yt_GQHjAdB-58" value="&lt;ul&gt;&lt;li&gt;Random Forest&lt;/li&gt;&lt;li&gt;Confidence-based Decisions&lt;/li&gt;&lt;li&gt;Fallback Rull-based system&lt;/li&gt;&lt;/ul&gt;" style="rounded=0;whiteSpace=wrap;html=1;align=left;" parent="1" vertex="1">
          <mxGeometry x="530" y="410" width="180" height="80" as="geometry" />
        </mxCell>
        <mxCell id="4G0LovrCN2Yt_GQHjAdB-59" value="&lt;ul&gt;&lt;li&gt;Hybrid Method&lt;/li&gt;&lt;ul&gt;&lt;li&gt;Fuzzy C-Means Clustering&lt;/li&gt;&lt;li&gt;Otsu&#39;s Tresholding&lt;/li&gt;&lt;/ul&gt;&lt;/ul&gt;" style="rounded=0;whiteSpace=wrap;html=1;align=left;" parent="1" vertex="1">
          <mxGeometry x="530" y="250" width="180" height="80" as="geometry" />
        </mxCell>
        <mxCell id="4G0LovrCN2Yt_GQHjAdB-60" value="&lt;ul&gt;&lt;li&gt;Color Features&lt;/li&gt;&lt;li&gt;Texture Features&lt;/li&gt;&lt;li&gt;Deep Features&lt;/li&gt;&lt;/ul&gt;" style="rounded=0;whiteSpace=wrap;html=1;align=left;" parent="1" vertex="1">
          <mxGeometry x="990" y="330" width="180" height="80" as="geometry" />
        </mxCell>
      </root>
    </mxGraphModel>
  </diagram>
</mxfile>
